####
#
# OBJ File Generated by Meshlab
#
####
# Object Fimo_Point_05.obj
#
# Vertices: 52
# Faces: 100
#
####
vn -1.548638 -0.951655 5.893387
v -0.036380 0.073709 0.241836 0.752941 0.752941 0.752941
vn 1.478061 -5.122047 1.075601
v 0.090371 -0.322723 0.072818 0.752941 0.752941 0.752941
vn -5.341424 -2.397990 -1.179316
v -0.284794 -0.124625 -0.024025 0.752941 0.752941 0.752941
vn 2.749067 5.191575 1.506140
v 0.126670 0.254969 0.090636 0.752941 0.752941 0.752941
vn -3.700618 -2.877975 1.337092
v -0.232413 -0.237410 0.096255 0.752941 0.752941 0.752941
vn 0.947946 3.756669 -1.102136
v 0.169167 0.268084 -0.102926 0.752941 0.752941 0.752941
vn 4.677455 -1.774989 3.685773
v 0.132404 -0.170386 0.180288 0.752941 0.752941 0.752941
vn -5.194495 -0.744450 1.007020
v -0.321414 -0.018259 0.024530 0.752941 0.752941 0.752941
vn -0.637678 3.515299 3.552567
v -0.092702 0.279579 0.235397 0.752941 0.752941 0.752941
vn -1.107527 2.065825 -3.510165
v -0.047877 0.085722 -0.243485 0.752941 0.752941 0.752941
vn -3.504734 -0.310616 4.905448
v -0.164821 -0.167657 0.185440 0.752941 0.752941 0.752941
vn -4.064816 2.111678 -4.136160
v -0.144515 0.002808 -0.140848 0.752941 0.752941 0.752941
vn 1.050324 4.295066 -1.504756
v 0.043224 0.319870 0.035506 0.752941 0.752941 0.752941
vn 1.082184 1.839812 -5.652308
v 0.026761 0.063780 -0.215635 0.752941 0.752941 0.752941
vn -0.803167 -5.545733 1.151209
v -0.039499 -0.325395 0.079433 0.752941 0.752941 0.752941
vn 1.922963 1.040657 5.386396
v 0.145047 0.064099 0.257297 0.752941 0.752941 0.752941
vn 0.242189 4.906654 -3.570285
v 0.050332 0.227717 -0.091974 0.752941 0.752941 0.752941
vn -3.377087 0.132964 -4.669407
v -0.084368 -0.086750 -0.254400 0.752941 0.752941 0.752941
vn -4.023432 1.929775 -1.453800
v -0.318082 0.110373 0.027354 0.752941 0.752941 0.752941
vn 2.934845 -1.630963 -5.139250
v 0.107111 -0.158401 -0.193564 0.752941 0.752941 0.752941
vn 2.661267 -0.818597 -4.365992
v 0.259854 -0.001733 -0.222212 0.752941 0.752941 0.752941
vn 3.605119 -3.513552 2.257886
v 0.211488 -0.248896 0.074632 0.752941 0.752941 0.752941
vn 0.538665 4.675389 1.115034
v -0.010349 0.333139 0.141216 0.752941 0.752941 0.752941
vn 4.447282 -1.520906 1.594519
v 0.310956 -0.157183 0.013018 0.752941 0.752941 0.752941
vn -3.257081 3.889887 -3.578694
v -0.097096 0.170570 -0.043581 0.752941 0.752941 0.752941
vn 0.013585 -1.146323 -4.194195
v -0.016694 -0.149823 -0.282311 0.752941 0.752941 0.752941
vn -1.738615 -0.651115 4.707254
v -0.152242 0.165943 0.263119 0.752941 0.752941 0.752941
vn -2.832156 4.182051 -0.592140
v -0.206684 0.268034 0.123709 0.752941 0.752941 0.752941
vn -3.416229 1.053897 2.691064
v -0.252076 0.193951 0.201714 0.752941 0.752941 0.752941
vn 1.258327 -3.140775 -3.822849
v 0.043738 -0.227561 -0.223254 0.752941 0.752941 0.752941
vn -3.597984 -0.137341 5.100385
v -0.174563 0.005999 0.154946 0.752941 0.752941 0.752941
vn 3.708300 3.134261 0.777829
v 0.194400 0.236928 0.067918 0.752941 0.752941 0.752941
vn -1.047504 -2.851140 4.266318
v -0.066124 -0.243699 0.220735 0.752941 0.752941 0.752941
vn -2.694808 -3.021319 3.412057
v -0.158089 -0.245862 0.174471 0.752941 0.752941 0.752941
vn 4.086586 -1.452080 -1.510286
v 0.327620 -0.117393 -0.101721 0.752941 0.752941 0.752941
vn 3.712549 -0.929317 3.205789
v 0.176325 -0.020032 0.248236 0.752941 0.752941 0.752941
vn 0.361236 1.589952 -4.746855
v 0.186934 0.114006 -0.243446 0.752941 0.752941 0.752941
vn 3.107827 -4.409377 -1.721607
v 0.220986 -0.247359 -0.047983 0.752941 0.752941 0.752941
vn 1.754839 -3.108980 4.196937
v 0.067542 -0.223491 0.226485 0.752941 0.752941 0.752941
vn 3.281199 2.197592 -1.324929
v 0.288113 0.161953 -0.165297 0.752941 0.752941 0.752941
vn 0.545228 0.862795 5.759732
v -0.028640 0.181644 0.266150 0.752941 0.752941 0.752941
vn 5.876910 0.352634 1.432635
v 0.216903 0.071109 0.103712 0.752941 0.752941 0.752941
vn 2.441949 3.357381 4.313259
v 0.078317 0.206659 0.221861 0.752941 0.752941 0.752941
vn 0.247405 -0.748586 5.529341
v 0.065298 -0.089217 0.277733 0.752941 0.752941 0.752941
vn -0.393156 -4.994476 -2.277790
v -0.010848 -0.307876 -0.107363 0.752941 0.752941 0.752941
vn -1.028903 3.632462 -3.238860
v -0.006700 0.214507 -0.128768 0.752941 0.752941 0.752941
vn -4.759372 -0.763257 2.924995
v -0.306491 0.079605 0.088910 0.752941 0.752941 0.752941
vn 3.995212 1.340851 1.717387
v 0.226331 0.141002 0.174650 0.752941 0.752941 0.752941
vn 5.657545 1.417607 1.910620
v 0.293594 0.010796 -0.016045 0.752941 0.752941 0.752941
vn -2.478714 -5.200424 -1.352709
v -0.107658 -0.299001 -0.033221 0.752941 0.752941 0.752941
vn -4.039439 0.270770 -3.359214
v -0.293220 -0.036620 -0.071972 0.752941 0.752941 0.752941
vn -3.668493 -2.431295 -3.144433
v -0.213198 -0.182245 -0.116318 0.752941 0.752941 0.752941
# 52 vertices, 0 vertices normals

f 46//46 25//25 13//13
f 2//2 15//15 45//45
f 6//6 42//42 40//40
f 27//27 29//29 47//47
f 14//14 26//26 10//10
f 13//13 4//4 17//17
f 24//24 42//42 7//7
f 34//34 15//15 33//33
f 33//33 15//15 2//2
f 12//12 10//10 18//18
f 42//42 6//6 32//32
f 42//42 49//49 40//40
f 38//38 22//22 2//2
f 32//32 6//6 4//4
f 27//27 47//47 1//1
f 2//2 45//45 38//38
f 8//8 31//31 47//47
f 51//51 3//3 8//8
f 1//1 47//47 31//31
f 37//37 6//6 40//40
f 4//4 13//13 23//23
f 52//52 18//18 26//26
f 23//23 43//43 4//4
f 8//8 3//3 5//5
f 39//39 7//7 36//36
f 14//14 37//37 20//20
f 13//13 17//17 46//46
f 1//1 41//41 27//27
f 43//43 23//23 9//9
f 19//19 12//12 51//51
f 52//52 12//12 18//18
f 2//2 39//39 33//33
f 29//29 9//9 28//28
f 39//39 2//2 22//22
f 48//48 32//32 4//4
f 38//38 35//35 24//24
f 39//39 22//22 7//7
f 25//25 28//28 13//13
f 37//37 21//21 20//20
f 9//9 29//29 27//27
f 42//42 36//36 7//7
f 43//43 48//48 4//4
f 9//9 27//27 41//41
f 36//36 44//44 39//39
f 34//34 11//11 5//5
f 8//8 5//5 11//11
f 16//16 44//44 36//36
f 6//6 17//17 4//4
f 30//30 26//26 20//20
f 1//1 44//44 16//16
f 51//51 8//8 19//19
f 31//31 8//8 11//11
f 20//20 26//26 14//14
f 46//46 10//10 12//12
f 22//22 38//38 24//24
f 41//41 1//1 16//16
f 10//10 26//26 18//18
f 9//9 41//41 43//43
f 10//10 46//46 14//14
f 47//47 19//19 8//8
f 7//7 22//22 24//24
f 12//12 25//25 46//46
f 17//17 37//37 14//14
f 15//15 50//50 45//45
f 48//48 16//16 36//36
f 15//15 5//5 50//50
f 46//46 17//17 14//14
f 9//9 23//23 28//28
f 35//35 20//20 21//21
f 31//31 11//11 1//1
f 6//6 37//37 17//17
f 25//25 12//12 19//19
f 33//33 11//11 34//34
f 52//52 45//45 50//50
f 13//13 28//28 23//23
f 21//21 40//40 35//35
f 34//34 5//5 15//15
f 26//26 45//45 52//52
f 20//20 38//38 30//30
f 16//16 43//43 41//41
f 28//28 25//25 19//19
f 16//16 48//48 43//43
f 26//26 30//30 45//45
f 30//30 38//38 45//45
f 21//21 37//37 40//40
f 11//11 33//33 44//44
f 38//38 20//20 35//35
f 44//44 33//33 39//39
f 36//36 42//42 48//48
f 42//42 24//24 49//49
f 1//1 11//11 44//44
f 32//32 48//48 42//42
f 40//40 49//49 35//35
f 49//49 24//24 35//35
f 29//29 19//19 47//47
f 19//19 29//29 28//28
f 5//5 52//52 50//50
f 51//51 12//12 52//52
f 3//3 51//51 52//52
f 5//5 3//3 52//52
# 100 faces, 0 coords texture

# End of File
