####
#
# OBJ File Generated by Meshlab
#
####
# Object Fimo_Twist_04.obj
#
# Vertices: 157
# Faces: 310
#
####
vn -2.423375 2.198889 -4.505765
v -0.011257 -0.073561 -0.104000 0.600000 0.600000 0.600000
vn -4.643954 1.712589 -3.110670
v -0.112745 -0.186622 -0.065800 0.600000 0.600000 0.600000
vn -4.293137 2.310894 -3.844617
v -0.061547 -0.114919 -0.070999 0.600000 0.600000 0.600000
vn -0.410897 3.111497 -5.146933
v 0.017810 0.001097 -0.041152 0.600000 0.600000 0.600000
vn -0.707186 3.402323 -4.266484
v 0.005536 -0.273418 -0.177811 0.600000 0.600000 0.600000
vn -1.791862 3.594457 -3.969739
v -0.006116 0.167189 0.033702 0.600000 0.600000 0.600000
vn 1.288845 2.135262 -5.417419
v 0.033877 0.216809 0.074544 0.600000 0.600000 0.600000
vn 2.368866 3.254864 -4.463990
v 0.047392 -0.282078 -0.171341 0.600000 0.600000 0.600000
vn 1.280548 2.710235 -5.276635
v 0.026393 0.090149 -0.007901 0.600000 0.600000 0.600000
vn 2.169114 2.827148 -4.517531
v 0.048879 0.165400 0.034598 0.600000 0.600000 0.600000
vn -1.223627 3.200897 -0.754019
v 0.012227 0.486739 0.139942 0.600000 0.600000 0.600000
vn 3.456499 2.693812 -4.400016
v 0.064214 -0.238253 -0.116523 0.600000 0.600000 0.600000
vn 5.192028 1.978894 -2.724922
v 0.107933 -0.250724 -0.076006 0.600000 0.600000 0.600000
vn 3.142798 3.268887 -3.056972
v 0.101544 -0.024411 -0.054509 0.600000 0.600000 0.600000
vn 3.642094 2.974521 -3.681126
v 0.070725 0.016438 -0.010073 0.600000 0.600000 0.600000
vn 3.853791 1.374636 -4.010867
v 0.055319 0.310302 0.094046 0.600000 0.600000 0.600000
vn 5.463125 0.341780 -1.819194
v 0.128934 -0.316493 -0.091423 0.600000 0.600000 0.600000
vn 5.808739 1.002056 0.215879
v 0.138887 -0.053096 0.031013 0.600000 0.600000 0.600000
vn 4.801289 3.236825 -1.004749
v 0.123094 -0.017060 0.010322 0.600000 0.600000 0.600000
vn 4.799124 0.750487 -3.903694
v 0.060875 0.367088 0.129709 0.600000 0.600000 0.600000
vn 5.189440 1.785491 -2.297382
v 0.084445 0.177110 0.082206 0.600000 0.600000 0.600000
vn 4.706443 0.967205 -3.141624
v 0.085340 0.058518 0.014960 0.600000 0.600000 0.600000
vn 6.085190 1.070376 -0.221767
v 0.123993 -0.249983 -0.016234 0.600000 0.600000 0.600000
vn 5.487327 -1.033891 2.185046
v 0.130729 -0.107965 0.060030 0.600000 0.600000 0.600000
vn 5.001505 1.723089 2.085789
v 0.125928 -0.031657 0.074499 0.600000 0.600000 0.600000
vn 5.629221 0.521726 -0.421574
v 0.073524 0.329066 0.136075 0.600000 0.600000 0.600000
vn 5.121574 0.846455 1.390494
v 0.087074 0.214466 0.148590 0.600000 0.600000 0.600000
vn 6.068762 1.096225 0.266701
v 0.071893 0.255189 0.143870 0.600000 0.600000 0.600000
vn 5.586411 -0.005468 2.544021
v 0.112210 -0.244846 0.048033 0.600000 0.600000 0.600000
vn 4.163513 2.423845 0.535154
v 0.059016 0.465060 0.153235 0.600000 0.600000 0.600000
vn 4.146685 -0.729403 4.503818
v 0.079015 -0.235491 0.093745 0.600000 0.600000 0.600000
vn 2.613725 -1.250094 5.028897
v 0.055656 0.027349 0.126324 0.600000 0.600000 0.600000
vn 4.566496 0.314755 3.654681
v 0.055421 0.370452 0.183663 0.600000 0.600000 0.600000
vn 1.686141 -2.910780 2.314997
v 0.039707 -0.481818 0.000456 0.600000 0.600000 0.600000
vn 2.997313 -0.821851 5.370051
v 0.055472 -0.151445 0.120063 0.600000 0.600000 0.600000
vn 1.938023 -0.130808 5.538475
v 0.061938 -0.062959 0.137492 0.600000 0.600000 0.600000
vn 0.591759 0.185129 6.177273
v 0.004930 -0.123430 0.136802 0.600000 0.600000 0.600000
vn 4.519039 0.505492 3.895258
v 0.056620 0.272540 0.182113 0.600000 0.600000 0.600000
vn 3.498954 -0.384293 4.912908
v 0.056347 0.169059 0.180077 0.600000 0.600000 0.600000
vn -0.789236 -0.366616 5.998388
v 0.007459 0.198696 0.194888 0.600000 0.600000 0.600000
vn -2.669112 -0.032115 4.857742
v -0.019817 0.285034 0.200422 0.600000 0.600000 0.600000
vn -1.641607 1.004834 5.931979
v -0.041470 -0.098309 0.129883 0.600000 0.600000 0.600000
vn -0.914710 0.391359 5.923504
v -0.000828 -0.024793 0.139943 0.600000 0.600000 0.600000
vn -3.344769 -0.886606 5.014785
v -0.023334 0.058853 0.128924 0.600000 0.600000 0.600000
vn -1.364120 0.331507 5.683139
v 0.000491 0.335287 0.199446 0.600000 0.600000 0.600000
vn 0.529573 0.475568 5.378020
v 0.023522 0.380762 0.203509 0.600000 0.600000 0.600000
vn -5.067020 0.377232 2.522431
v -0.098702 -0.098340 0.090141 0.600000 0.600000 0.600000
vn -3.940965 1.062836 4.660712
v -0.065109 -0.048595 0.107344 0.600000 0.600000 0.600000
vn -5.148149 0.586672 3.250580
v -0.069730 0.041679 0.087938 0.600000 0.600000 0.600000
vn -5.025916 0.431323 2.119212
v -0.045855 0.313848 0.169544 0.600000 0.600000 0.600000
vn -3.003635 2.076667 3.266335
v -0.001590 0.448824 0.183165 0.600000 0.600000 0.600000
vn -5.514665 1.827432 0.212786
v -0.132864 -0.187704 0.004221 0.600000 0.600000 0.600000
vn -5.866597 0.139338 -0.317996
v -0.142821 -0.253437 -0.008160 0.600000 0.600000 0.600000
vn -5.262163 2.518089 -1.494742
v -0.115037 -0.156888 -0.030369 0.600000 0.600000 0.600000
vn -5.720916 1.320305 -1.648892
v -0.074066 0.022448 0.030785 0.600000 0.600000 0.600000
vn -5.699339 0.428651 -1.268079
v -0.045327 0.327913 0.136722 0.600000 0.600000 0.600000
vn -4.928665 2.010538 -1.268258
v -0.024902 0.417725 0.130761 0.600000 0.600000 0.600000
vn 0.977549 2.565485 2.104039
v 0.038183 0.479425 0.178606 0.600000 0.600000 0.600000
vn -0.036244 -0.824825 5.314548
v -0.012832 -0.176905 0.148660 0.600000 0.600000 0.600000
vn -1.925330 -0.985164 4.921277
v -0.016525 0.139229 0.196364 0.600000 0.600000 0.600000
vn 2.820184 -3.231667 1.776904
v 0.074543 -0.452670 0.007693 0.600000 0.600000 0.600000
vn -1.157871 -0.605128 5.931404
v -0.027290 -0.232257 0.118983 0.600000 0.600000 0.600000
vn 2.485063 -1.028503 5.492332
v 0.049704 -0.233138 0.114245 0.600000 0.600000 0.600000
vn 0.603218 -2.733015 5.453845
v -0.010499 -0.374257 0.088361 0.600000 0.600000 0.600000
vn 0.709241 -1.737829 5.090863
v 0.023495 0.109765 0.192919 0.600000 0.600000 0.600000
vn 1.696102 -0.177171 5.176257
v 0.033656 0.243834 0.204676 0.600000 0.600000 0.600000
vn 1.076950 -3.488621 3.028972
v 0.030766 -0.451965 0.044193 0.600000 0.600000 0.600000
vn 4.196595 -0.117355 4.061374
v 0.108004 -0.065704 0.107594 0.600000 0.600000 0.600000
vn 1.068109 -1.498659 5.480692
v 0.008073 -0.309242 0.119904 0.600000 0.600000 0.600000
vn 2.979582 -2.465968 4.414788
v 0.069736 -0.352075 0.074582 0.600000 0.600000 0.600000
vn 3.492064 -1.634295 4.044973
v 0.069633 0.084832 0.160714 0.600000 0.600000 0.600000
vn 4.517683 -2.193133 0.548413
v 0.094033 -0.451573 -0.041553 0.600000 0.600000 0.600000
vn 4.264293 -2.564988 3.466084
v 0.073373 -0.398629 0.029073 0.600000 0.600000 0.600000
vn 4.863860 -0.979454 3.749982
v 0.094742 -0.170681 0.080975 0.600000 0.600000 0.600000
vn 4.970753 -1.477012 2.192681
v 0.095160 0.066915 0.117952 0.600000 0.600000 0.600000
vn 3.509963 -2.900370 -3.112532
v 0.055484 -0.414929 -0.119065 0.600000 0.600000 0.600000
vn 5.657791 -2.224432 -0.563688
v 0.095117 -0.394647 -0.062296 0.600000 0.600000 0.600000
vn 4.659702 -1.883768 2.110983
v 0.124875 -0.344970 0.021785 0.600000 0.600000 0.600000
vn 6.042243 -0.678184 0.983503
v 0.116309 -0.185977 0.028053 0.600000 0.600000 0.600000
vn 4.082667 -1.108343 -3.186556
v 0.079242 -0.442379 -0.101863 0.600000 0.600000 0.600000
vn 3.348091 -3.348995 -2.657860
v 0.070712 -0.395870 -0.169442 0.600000 0.600000 0.600000
vn 5.901238 -1.039940 -0.433010
v 0.136814 -0.122295 0.003455 0.600000 0.600000 0.600000
vn 5.452651 -1.016019 0.087983
v 0.139239 -0.329633 -0.029771 0.600000 0.600000 0.600000
vn 5.670911 1.672636 0.183727
v 0.095739 0.019649 0.054711 0.600000 0.600000 0.600000
vn 6.031219 0.105575 -0.501186
v 0.100383 0.065236 0.070047 0.600000 0.600000 0.600000
vn 3.042033 -4.042986 -1.478499
v 0.075570 -0.467811 -0.079425 0.600000 0.600000 0.600000
vn 4.040563 1.436376 -3.850559
v 0.089531 -0.317149 -0.162127 0.600000 0.600000 0.600000
vn 3.547915 0.594727 -5.051922
v 0.062926 -0.184814 -0.098667 0.600000 0.600000 0.600000
vn 4.793127 -1.697236 -2.489697
v 0.097984 -0.366376 -0.150505 0.600000 0.600000 0.600000
vn 5.105385 0.546569 -2.530746
v 0.128868 -0.078042 -0.045427 0.600000 0.600000 0.600000
vn 5.415242 0.049295 -2.845247
v 0.104123 -0.185621 -0.056520 0.600000 0.600000 0.600000
vn 3.236857 0.570864 -4.785980
v 0.082714 -0.085337 -0.097255 0.600000 0.600000 0.600000
vn 5.077288 1.379752 -3.038695
v 0.066106 0.238865 0.103685 0.600000 0.600000 0.600000
vn 2.915149 -0.925004 -4.916242
v 0.055196 -0.372647 -0.192648 0.600000 0.600000 0.600000
vn 0.870437 1.332373 -5.769634
v 0.022229 0.340514 0.095394 0.600000 0.600000 0.600000
vn -1.282177 -4.499235 -2.916755
v -0.039602 -0.468361 -0.116711 0.600000 0.600000 0.600000
vn 1.166926 -1.985902 -4.081180
v 0.029921 -0.452942 -0.131844 0.600000 0.600000 0.600000
vn 0.697237 3.215542 -5.137857
v 0.018487 -0.241062 -0.140005 0.600000 0.600000 0.600000
vn 0.372819 2.527346 -4.461393
v 0.040551 -0.050064 -0.107132 0.600000 0.600000 0.600000
vn -0.072504 -1.690088 -4.611124
v 0.003915 -0.392463 -0.208027 0.600000 0.600000 0.600000
vn 0.871797 1.449019 -5.453380
v 0.024968 -0.325368 -0.201134 0.600000 0.600000 0.600000
vn 1.460955 1.673575 -5.082389
v 0.033850 0.047276 -0.030703 0.600000 0.600000 0.600000
vn 2.133801 1.772310 -2.444023
v 0.054420 0.458489 0.109710 0.600000 0.600000 0.600000
vn 0.954598 1.008160 -5.012279
v 0.024119 0.282580 0.066951 0.600000 0.600000 0.600000
vn -1.451530 -4.271799 -4.132095
v -0.040700 -0.440605 -0.138394 0.600000 0.600000 0.600000
vn -3.106964 1.823613 -5.048833
v -0.077940 -0.231054 -0.109804 0.600000 0.600000 0.600000
vn -3.521077 2.034978 -4.479589
v -0.050885 -0.277607 -0.141973 0.600000 0.600000 0.600000
vn -2.417254 1.514624 -5.553835
v -0.041922 -0.174198 -0.105907 0.600000 0.600000 0.600000
vn 0.223887 1.194609 -5.913439
v 0.009085 -0.181896 -0.122439 0.600000 0.600000 0.600000
vn -2.758509 1.734674 -5.005596
v -0.032998 0.043495 -0.019090 0.600000 0.600000 0.600000
vn -1.396263 2.427666 -5.456257
v -0.012871 0.072439 -0.015062 0.600000 0.600000 0.600000
vn -1.110234 1.264772 -4.785031
v 0.008711 0.413647 0.092419 0.600000 0.600000 0.600000
vn -3.345932 1.150960 -3.402917
v -0.036338 0.264204 0.078492 0.600000 0.600000 0.600000
vn -3.320313 -1.895155 -3.969406
v -0.066223 -0.399958 -0.169740 0.600000 0.600000 0.600000
vn 0.367865 -4.569583 -2.650146
v -0.001401 -0.427473 -0.175224 0.600000 0.600000 0.600000
vn -3.935135 2.322728 -4.169392
v -0.047584 -0.049334 -0.038985 0.600000 0.600000 0.600000
vn -4.663311 1.830058 -2.615827
v -0.081342 -0.003858 0.001917 0.600000 0.600000 0.600000
vn -4.165910 -0.378529 -3.908861
v -0.103683 -0.273453 -0.102235 0.600000 0.600000 0.600000
vn -2.740575 1.178964 -4.915408
v -0.036178 -0.341338 -0.192766 0.600000 0.600000 0.600000
vn -4.976542 1.266354 -2.588127
v -0.080865 -0.353814 -0.151420 0.600000 0.600000 0.600000
vn -4.910918 1.445148 -3.009634
v -0.029614 0.299754 0.105358 0.600000 0.600000 0.600000
vn -3.523944 0.624541 -4.382257
v -0.019079 0.370905 0.100766 0.600000 0.600000 0.600000
vn -3.611852 2.078137 -3.997760
v -0.015000 0.182990 0.072615 0.600000 0.600000 0.600000
vn -5.384613 1.586917 -2.649966
v -0.084576 -0.086365 -0.008006 0.600000 0.600000 0.600000
vn -5.190901 -0.711778 -2.131382
v -0.081677 -0.332416 -0.087005 0.600000 0.600000 0.600000
vn -5.670299 1.106302 -0.066371
v -0.101813 -0.048316 0.042889 0.600000 0.600000 0.600000
vn -5.878261 1.615443 0.059639
v -0.097169 -0.127349 0.009002 0.600000 0.600000 0.600000
vn -5.778474 0.796742 -0.597831
v -0.040419 0.136461 0.097984 0.600000 0.600000 0.600000
vn -5.132940 0.904907 -0.343833
v -0.082839 0.074618 0.047392 0.600000 0.600000 0.600000
vn -3.981273 2.229255 -2.244310
v -0.067961 0.105840 0.028873 0.600000 0.600000 0.600000
vn -4.584615 -1.613502 0.501222
v -0.101689 -0.438044 -0.068505 0.600000 0.600000 0.600000
vn -4.908643 -1.478870 -2.295724
v -0.130558 -0.307649 -0.053951 0.600000 0.600000 0.600000
vn -4.314909 -1.349144 -1.455902
v -0.103408 -0.421221 -0.113126 0.600000 0.600000 0.600000
vn -5.139940 -1.715773 0.179239
v -0.078763 -0.379885 -0.039156 0.600000 0.600000 0.600000
vn -5.711192 1.111187 1.833539
v -0.101090 -0.157965 0.046750 0.600000 0.600000 0.600000
vn -4.801372 -2.643659 -0.478341
v -0.126875 -0.351322 -0.003806 0.600000 0.600000 0.600000
vn -5.286554 0.078357 -0.332349
v -0.065347 0.191988 0.130731 0.600000 0.600000 0.600000
vn -5.815778 1.022937 1.931254
v -0.077287 -0.006522 0.074607 0.600000 0.600000 0.600000
vn 0.308796 -5.881376 -1.134518
v 0.016389 -0.481168 -0.075511 0.600000 0.600000 0.600000
vn -3.788784 -2.655097 2.475502
v -0.046823 -0.423952 -0.001005 0.600000 0.600000 0.600000
vn -4.820868 0.834793 2.803512
v -0.127624 -0.227310 0.061761 0.600000 0.600000 0.600000
vn -4.465181 -0.087028 3.258259
v -0.051749 0.176082 0.171316 0.600000 0.600000 0.600000
vn -5.456374 -0.937664 2.379999
v -0.038336 0.103814 0.119724 0.600000 0.600000 0.600000
vn -2.052818 -5.291692 -0.685100
v -0.053504 -0.474137 -0.083359 0.600000 0.600000 0.600000
vn -2.940946 -2.245808 2.010507
v -0.078034 -0.460838 -0.021679 0.600000 0.600000 0.600000
vn -0.954688 -2.516912 2.617394
v -0.018307 -0.479865 0.010763 0.600000 0.600000 0.600000
vn -1.688553 -3.764356 2.705750
v -0.039125 -0.430035 0.060111 0.600000 0.600000 0.600000
vn -4.112377 0.260341 4.487679
v -0.078517 -0.201915 0.092640 0.600000 0.600000 0.600000
vn -3.493825 0.001951 4.575878
v -0.090479 -0.263286 0.104499 0.600000 0.600000 0.600000
vn -2.716434 -0.185995 4.707663
v -0.056585 -0.148345 0.138625 0.600000 0.600000 0.600000
vn -3.534049 -3.194905 1.862650
v -0.088401 -0.398142 0.049296 0.600000 0.600000 0.600000
vn -1.581228 -0.447884 5.206690
v -0.055169 -0.279929 0.124840 0.600000 0.600000 0.600000
vn -5.242350 -1.440862 2.501605
v -0.122427 -0.326706 0.042648 0.600000 0.600000 0.600000
vn 0.185918 -4.229916 3.655644
v 0.020909 -0.457670 0.014082 0.600000 0.600000 0.600000
vn -4.581337 -2.328983 2.531708
v -0.040231 0.128165 0.168371 0.600000 0.600000 0.600000
vn -5.119905 0.313331 2.892285
v -0.039626 0.241799 0.167413 0.600000 0.600000 0.600000
vn -1.963191 -3.593485 4.029798
v 0.005933 0.071658 0.163566 0.600000 0.600000 0.600000
# 157 vertices, 0 vertices normals

f 106//106 118//118 2//2
f 5//5 119//119 107//107
f 3//3 2//2 54//54
f 116//116 1//1 3//3
f 54//54 124//124 3//3
f 4//4 1//1 116//116
f 124//124 116//116 3//3
f 107//107 119//119 120//120
f 122//122 57//57 112//112
f 121//121 95//95 113//113
f 11//11 112//112 57//57
f 106//106 2//2 3//3
f 109//109 98//98 107//107
f 108//108 109//109 106//106
f 109//109 107//107 106//106
f 3//3 108//108 106//106
f 98//98 5//5 107//107
f 4//4 99//99 1//1
f 110//110 111//111 102//102
f 6//6 9//9 111//111
f 6//6 111//111 130//130
f 113//113 95//95 104//104
f 6//6 123//123 7//7
f 112//112 11//11 103//103
f 98//98 109//109 88//88
f 101//101 119//119 5//5
f 12//12 5//5 98//98
f 99//99 4//4 14//14
f 8//8 101//101 5//5
f 14//14 4//4 15//15
f 102//102 111//111 9//9
f 10//10 9//9 6//6
f 95//95 16//16 104//104
f 6//6 7//7 10//10
f 76//76 80//80 97//97
f 12//12 87//87 8//8
f 13//13 87//87 12//12
f 19//19 14//14 15//15
f 12//12 8//8 5//5
f 99//99 14//14 92//92
f 87//87 101//101 8//8
f 16//16 95//95 20//20
f 22//22 102//102 9//9
f 10//10 22//22 9//9
f 90//90 92//92 14//14
f 13//13 88//88 91//91
f 76//76 77//77 80//80
f 17//17 87//87 13//13
f 19//19 90//90 14//14
f 84//84 19//19 15//15
f 7//7 93//93 10//10
f 10//10 93//93 21//21
f 22//22 10//10 21//21
f 26//26 16//16 20//20
f 27//27 21//21 93//93
f 30//30 11//11 58//58
f 30//30 103//103 11//11
f 72//72 80//80 77//77
f 23//23 17//17 13//13
f 91//91 23//23 13//13
f 18//18 90//90 19//19
f 19//19 25//25 18//18
f 23//23 91//91 79//79
f 25//25 19//19 84//84
f 21//21 27//27 85//85
f 27//27 93//93 28//28
f 21//21 85//85 22//22
f 26//26 93//93 16//16
f 83//83 17//17 23//23
f 29//29 83//83 23//23
f 77//77 73//73 72//72
f 61//61 72//72 73//73
f 29//29 23//23 79//79
f 24//24 18//18 25//25
f 29//29 79//79 74//74
f 83//83 29//29 78//78
f 24//24 82//82 18//18
f 28//28 93//93 26//26
f 38//38 28//28 26//26
f 27//27 75//75 85//85
f 28//28 38//38 27//27
f 33//33 26//26 30//30
f 30//30 26//26 20//20
f 103//103 30//30 20//20
f 24//24 25//25 68//68
f 68//68 25//25 32//32
f 25//25 84//84 32//32
f 29//29 74//74 31//31
f 31//31 78//78 29//29
f 26//26 33//33 38//38
f 75//75 27//27 39//39
f 66//66 27//27 38//38
f 75//75 39//39 71//71
f 30//30 58//58 33//33
f 69//69 31//31 63//63
f 63//63 35//35 59//59
f 31//31 70//70 78//78
f 63//63 31//31 35//35
f 35//35 31//31 74//74
f 36//36 68//68 32//32
f 36//36 35//35 68//68
f 70//70 31//31 69//69
f 46//46 38//38 33//33
f 39//39 65//65 71//71
f 46//46 33//33 58//58
f 66//66 39//39 27//27
f 69//69 63//63 152//152
f 34//34 154//154 146//146
f 36//36 37//37 35//35
f 32//32 43//43 36//36
f 37//37 59//59 35//35
f 46//46 45//45 38//38
f 65//65 40//40 60//60
f 65//65 39//39 40//40
f 39//39 66//66 40//40
f 43//43 32//32 44//44
f 45//45 66//66 38//38
f 42//42 37//37 43//43
f 37//37 36//36 43//43
f 152//152 62//62 149//149
f 59//59 42//42 150//150
f 63//63 62//62 152//152
f 42//42 59//59 37//37
f 41//41 66//66 45//45
f 46//46 58//58 51//51
f 140//140 145//145 146//146
f 43//43 48//48 42//42
f 47//47 148//148 150//150
f 150//150 48//48 47//47
f 48//48 150//150 42//42
f 48//48 43//43 44//44
f 141//141 148//148 135//135
f 149//149 148//148 141//141
f 148//148 149//149 62//62
f 156//156 142//142 60//60
f 41//41 45//45 50//50
f 156//156 60//60 40//40
f 45//45 51//51 50//50
f 49//49 44//44 143//143
f 46//46 51//51 45//45
f 140//140 134//134 145//145
f 131//131 145//145 134//134
f 47//47 48//48 138//138
f 141//141 135//135 52//52
f 48//48 49//49 138//138
f 44//44 49//49 48//48
f 143//143 129//129 49//49
f 49//49 129//129 138//138
f 131//131 125//125 133//133
f 131//131 134//134 125//125
f 127//127 54//54 52//52
f 125//125 120//120 133//133
f 141//141 52//52 53//53
f 138//138 126//126 47//47
f 135//135 127//127 52//52
f 138//138 55//55 126//126
f 55//55 117//117 126//126
f 129//129 128//128 130//130
f 128//128 129//129 143//143
f 51//51 57//57 50//50
f 156//156 121//121 137//137
f 156//156 137//137 142//142
f 50//50 57//57 56//56
f 51//51 11//11 57//57
f 58//58 11//11 51//51
f 127//127 124//124 54//54
f 54//54 2//2 53//53
f 52//52 54//54 53//53
f 125//125 107//107 120//120
f 132//132 2//2 118//118
f 55//55 110//110 117//117
f 121//121 113//113 137//137
f 123//123 130//130 128//128
f 123//123 6//6 130//130
f 145//145 144//144 139//139
f 140//140 146//146 154//154
f 151//151 147//147 152//152
f 152//152 147//147 64//64
f 64//64 69//69 152//152
f 157//157 65//65 60//60
f 40//40 66//66 41//41
f 157//157 44//44 32//32
f 64//64 147//147 67//67
f 154//154 61//61 67//67
f 63//63 59//59 62//62
f 70//70 64//64 73//73
f 69//69 64//64 70//70
f 65//65 157//157 32//32
f 154//154 34//34 72//72
f 61//61 154//154 72//72
f 67//67 61//61 73//73
f 64//64 67//67 73//73
f 74//74 68//68 35//35
f 70//70 73//73 78//78
f 71//71 65//65 32//32
f 32//32 75//75 71//71
f 139//139 86//86 34//34
f 146//146 139//139 34//34
f 34//34 86//86 72//72
f 105//105 115//115 76//76
f 74//74 79//79 24//24
f 24//24 68//68 74//74
f 75//75 32//32 84//84
f 76//76 115//115 81//81
f 78//78 77//77 83//83
f 77//77 78//78 73//73
f 77//77 89//89 83//83
f 76//76 81//81 77//77
f 77//77 81//81 89//89
f 82//82 24//24 79//79
f 90//90 18//18 82//82
f 75//75 84//84 85//85
f 80//80 72//72 86//86
f 87//87 17//17 89//89
f 89//89 17//17 83//83
f 79//79 91//91 82//82
f 90//90 82//82 91//91
f 84//84 15//15 22//22
f 85//85 84//84 22//22
f 139//139 97//97 86//86
f 80//80 86//86 97//97
f 89//89 94//94 87//87
f 88//88 92//92 91//91
f 91//91 92//92 90//90
f 89//89 81//81 94//94
f 22//22 15//15 102//102
f 93//93 7//7 104//104
f 20//20 95//95 103//103
f 16//16 93//93 104//104
f 109//109 92//92 88//88
f 12//12 98//98 88//88
f 100//100 81//81 115//115
f 81//81 100//100 94//94
f 88//88 13//13 12//12
f 94//94 100//100 101//101
f 101//101 87//87 94//94
f 102//102 15//15 4//4
f 112//112 103//103 95//95
f 96//96 97//97 139//139
f 76//76 97//97 105//105
f 92//92 109//109 99//99
f 109//109 1//1 99//99
f 100//100 119//119 101//101
f 4//4 110//110 102//102
f 123//123 104//104 7//7
f 96//96 105//105 97//97
f 133//133 105//105 96//96
f 114//114 119//119 100//100
f 1//1 109//109 108//108
f 105//105 114//114 115//115
f 130//130 111//111 110//110
f 110//110 4//4 116//116
f 112//112 95//95 121//121
f 123//123 113//113 104//104
f 122//122 112//112 121//121
f 105//105 133//133 114//114
f 106//106 107//107 118//118
f 120//120 119//119 114//114
f 116//116 124//124 117//117
f 116//116 117//117 110//110
f 1//1 108//108 3//3
f 118//118 107//107 125//125
f 125//125 132//132 118//118
f 132//132 134//134 136//136
f 100//100 115//115 114//114
f 128//128 113//113 123//123
f 130//130 110//110 55//55
f 130//130 55//55 129//129
f 96//96 139//139 144//144
f 96//96 144//144 133//133
f 120//120 114//114 133//133
f 2//2 132//132 53//53
f 134//134 132//132 125//125
f 127//127 126//126 124//124
f 127//127 135//135 126//126
f 117//117 124//124 126//126
f 151//151 136//136 134//134
f 151//151 134//134 140//140
f 56//56 121//121 156//156
f 56//56 122//122 121//121
f 122//122 56//56 57//57
f 128//128 137//137 113//113
f 138//138 129//129 55//55
f 144//144 131//131 133//133
f 146//146 145//145 139//139
f 53//53 132//132 136//136
f 151//151 140//140 147//147
f 47//47 126//126 135//135
f 153//153 136//136 151//151
f 153//153 53//53 136//136
f 156//156 50//50 56//56
f 137//137 128//128 143//143
f 155//155 137//137 143//143
f 145//145 131//131 144//144
f 147//147 140//140 154//154
f 141//141 53//53 153//153
f 47//47 135//135 148//148
f 155//155 143//143 157//157
f 156//156 41//41 50//50
f 142//142 137//137 155//155
f 147//147 154//154 67//67
f 62//62 59//59 150//150
f 149//149 153//153 151//151
f 151//151 152//152 149//149
f 153//153 149//149 141//141
f 150//150 148//148 62//62
f 155//155 157//157 60//60
f 142//142 155//155 60//60
f 157//157 143//143 44//44
f 41//41 156//156 40//40
# 310 faces, 0 coords texture

# End of File
