####
#
# OBJ File Generated by Meshlab
#
####
# Object Fimo_Point_04.obj
#
# Vertices: 152
# Faces: 300
#
####
vn -4.099194 0.741155 2.940321
v -0.275506 0.176544 0.172861 0.752941 0.752941 0.752941
vn 5.057136 2.849837 2.362550
v 0.248075 0.135838 -0.044241 0.752941 0.752941 0.752941
vn 1.763088 -5.702989 -0.133692
v 0.099530 -0.314088 0.030200 0.752941 0.752941 0.752941
vn 3.658390 4.951790 -1.061334
v 0.097992 0.268281 0.040609 0.752941 0.752941 0.752941
vn 2.016140 -4.601349 2.046618
v 0.164186 -0.285684 0.072566 0.752941 0.752941 0.752941
vn -2.483468 -3.258422 3.568378
v -0.138594 -0.248385 0.183323 0.752941 0.752941 0.752941
vn -5.282844 -2.132890 -1.983218
v -0.285323 -0.102836 -0.054497 0.752941 0.752941 0.752941
vn -4.185771 -0.193483 -3.876406
v -0.281774 -0.064905 -0.081499 0.752941 0.752941 0.752941
vn -0.374702 -5.144700 3.415558
v -0.026175 -0.278169 0.172607 0.752941 0.752941 0.752941
vn -2.935801 -2.828268 4.656821
v -0.190188 0.087004 0.167965 0.752941 0.752941 0.752941
vn 0.162497 4.504121 -3.423445
v 0.170072 0.228566 -0.157791 0.752941 0.752941 0.752941
vn 1.142266 5.188672 -2.789202
v 0.065437 0.249129 -0.038599 0.752941 0.752941 0.752941
vn -1.816752 -1.999819 5.597466
v -0.068286 0.091555 0.237083 0.752941 0.752941 0.752941
vn 1.474406 -5.129593 1.915612
v 0.066094 -0.315242 0.108716 0.752941 0.752941 0.752941
vn -0.701395 -0.533079 5.721999
v -0.096522 0.166960 0.267661 0.752941 0.752941 0.752941
vn 1.888546 -2.099092 5.310539
v 0.085478 -0.129323 0.263741 0.752941 0.752941 0.752941
vn -5.410742 -2.720128 -0.480265
v -0.275017 -0.157393 0.021350 0.752941 0.752941 0.752941
vn 2.937170 4.579105 2.619173
v 0.047823 0.289485 0.161229 0.752941 0.752941 0.752941
vn 2.412308 -5.391835 -1.594169
v 0.173175 -0.272601 -0.032294 0.752941 0.752941 0.752941
vn 0.651626 4.432102 -2.148523
v 0.040147 0.308172 0.013923 0.752941 0.752941 0.752941
vn 1.852406 -3.899810 3.949518
v 0.060712 -0.250464 0.201519 0.752941 0.752941 0.752941
vn 3.006571 5.023199 2.205581
v 0.133862 0.235682 0.130352 0.752941 0.752941 0.752941
vn 0.092939 1.723900 -5.563285
v 0.184967 0.106332 -0.236113 0.752941 0.752941 0.752941
vn -3.973299 -0.909075 -4.515562
v -0.150437 -0.133786 -0.176902 0.752941 0.752941 0.752941
vn 2.696066 5.520639 0.881730
v 0.123078 0.253952 0.082920 0.752941 0.752941 0.752941
vn 2.965449 -2.516785 -4.816560
v 0.105542 -0.187925 -0.186399 0.752941 0.752941 0.752941
vn -0.374634 6.082053 -0.987367
v 0.102278 0.255089 -0.034515 0.752941 0.752941 0.752941
vn 2.626837 -1.371812 -4.700253
v 0.256281 -0.011252 -0.219106 0.752941 0.752941 0.752941
vn 2.797522 -4.121864 3.678310
v 0.144584 -0.263472 0.104002 0.752941 0.752941 0.752941
vn -2.716421 4.318093 -3.566294
v -0.208478 0.210377 0.056853 0.752941 0.752941 0.752941
vn -4.899365 -1.778355 2.121533
v -0.266711 -0.167337 0.081950 0.752941 0.752941 0.752941
vn -1.420928 2.757969 4.865226
v -0.129441 0.240689 0.246815 0.752941 0.752941 0.752941
vn 1.281033 4.579207 -0.113281
v 0.166591 0.266027 -0.070956 0.752941 0.752941 0.752941
vn -0.491444 -1.399353 -5.606973
v -0.029544 -0.121984 -0.272364 0.752941 0.752941 0.752941
vn 0.047038 0.047103 5.715448
v 0.076631 -0.069565 0.279576 0.752941 0.752941 0.752941
vn 3.897880 2.603508 0.329397
v 0.208943 0.218281 0.093849 0.752941 0.752941 0.752941
vn -1.284361 5.331826 -2.070501
v 0.138518 0.252653 -0.108835 0.752941 0.752941 0.752941
vn 1.692269 -2.430517 -4.467282
v 0.038909 -0.205754 -0.233269 0.752941 0.752941 0.752941
vn -1.324260 -0.293095 6.101534
v -0.002099 0.040086 0.247624 0.752941 0.752941 0.752941
vn 3.705571 -1.413961 3.514831
v 0.150942 -0.066935 0.253796 0.752941 0.752941 0.752941
vn 3.921658 -2.194579 4.318425
v 0.162573 -0.200291 0.137834 0.752941 0.752941 0.752941
vn -5.615115 -0.398961 -0.958785
v -0.322293 -0.007778 -0.006026 0.752941 0.752941 0.752941
vn -2.069587 -2.906913 -4.558713
v -0.048182 -0.175237 -0.244969 0.752941 0.752941 0.752941
vn -5.229232 -1.004038 2.464842
v -0.304345 -0.052983 0.041780 0.752941 0.752941 0.752941
vn 3.687254 -4.690148 -0.694792
v 0.249967 -0.231407 -0.020201 0.752941 0.752941 0.752941
vn 2.957533 -0.403658 -5.406989
v 0.057622 -0.114658 -0.223462 0.752941 0.752941 0.752941
vn -0.001310 4.478766 3.343701
v -0.056798 0.297010 0.212260 0.752941 0.752941 0.752941
vn -5.105726 -1.188494 2.833640
v -0.315281 0.021241 0.047089 0.752941 0.752941 0.752941
vn 1.313645 0.455304 -5.024079
v -0.007177 -0.063051 -0.279153 0.752941 0.752941 0.752941
vn -5.019083 1.066109 -1.231782
v -0.325970 0.075985 0.029069 0.752941 0.752941 0.752941
vn -3.225399 2.776259 -3.191289
v -0.051089 0.115772 -0.206599 0.752941 0.752941 0.752941
vn -4.002847 -0.197951 4.666768
v -0.203794 -0.169917 0.152593 0.752941 0.752941 0.752941
vn 0.006779 3.535240 -4.198268
v -0.023591 0.156348 -0.183942 0.752941 0.752941 0.752941
vn -0.738792 1.709450 -5.930427
v 0.050313 0.075530 -0.210705 0.752941 0.752941 0.752941
vn -4.876622 2.546926 -2.866972
v -0.080779 0.067347 -0.171953 0.752941 0.752941 0.752941
vn -2.229745 4.671495 -3.528853
v -0.029107 0.286609 0.040673 0.752941 0.752941 0.752941
vn -4.105542 -4.171859 0.166915
v -0.220528 -0.241302 0.053982 0.752941 0.752941 0.752941
vn 1.044828 5.043169 -0.744734
v 0.032512 0.323964 0.065138 0.752941 0.752941 0.752941
vn 0.781273 3.185923 -4.943578
v 0.013453 0.133403 -0.176373 0.752941 0.752941 0.752941
vn 3.413100 -2.916174 4.098458
v 0.091085 -0.207024 0.213159 0.752941 0.752941 0.752941
vn 2.526250 1.837305 -5.266015
v 0.012301 0.043026 -0.223913 0.752941 0.752941 0.752941
vn 3.185769 0.821023 -5.192468
v 0.031657 -0.043004 -0.235370 0.752941 0.752941 0.752941
vn 0.772425 2.114008 -4.846149
v -0.026004 0.048977 -0.253588 0.752941 0.752941 0.752941
vn 0.985978 4.070034 -4.164532
v 0.020907 0.195088 -0.125896 0.752941 0.752941 0.752941
vn -3.243307 -0.278452 -4.638943
v -0.077261 -0.090819 -0.260662 0.752941 0.752941 0.752941
vn -2.114671 5.021652 -2.375415
v -0.110848 0.296647 0.093490 0.752941 0.752941 0.752941
vn -0.833137 -5.672634 1.104940
v -0.039499 -0.325395 0.079433 0.752941 0.752941 0.752941
vn 1.743758 1.022241 5.517104
v 0.145047 0.064099 0.257297 0.752941 0.752941 0.752941
vn -1.961442 4.726302 -3.450063
v 0.081332 0.211887 -0.133052 0.752941 0.752941 0.752941
vn -4.875323 1.408180 -3.673471
v -0.099966 -0.042784 -0.215312 0.752941 0.752941 0.752941
vn -3.200843 1.515856 -4.225501
v -0.061251 0.020215 -0.253460 0.752941 0.752941 0.752941
vn 4.538424 -1.285655 4.106704
v 0.168952 -0.129631 0.153624 0.752941 0.752941 0.752941
vn -1.627529 2.979869 -5.125342
v 0.099649 0.147219 -0.199732 0.752941 0.752941 0.752941
vn -3.219093 4.510281 -0.120659
v -0.214080 0.260816 0.142793 0.752941 0.752941 0.752941
vn 1.859223 -2.369742 -5.473248
v 0.167792 -0.120903 -0.188398 0.752941 0.752941 0.752941
vn -3.698911 0.309986 5.048499
v -0.175398 -0.030602 0.157953 0.752941 0.752941 0.752941
vn -2.593299 2.560268 -5.050980
v -0.226876 0.028031 -0.079088 0.752941 0.752941 0.752941
vn 0.442044 0.040792 -6.187436
v 0.081723 -0.010328 -0.218768 0.752941 0.752941 0.752941
vn 5.424390 -1.883926 2.387025
v 0.155529 -0.093167 0.189686 0.752941 0.752941 0.752941
vn -2.562726 4.715539 2.562274
v -0.176773 0.266825 0.191544 0.752941 0.752941 0.752941
vn -3.364276 2.871974 -4.403757
v -0.161630 0.042718 -0.105004 0.752941 0.752941 0.752941
vn -3.144635 3.271027 -4.009505
v -0.274511 0.110853 -0.003342 0.752941 0.752941 0.752941
vn 0.879184 -1.188077 -6.071885
v 0.130063 -0.074413 -0.209905 0.752941 0.752941 0.752941
vn 3.903192 0.128499 -4.519269
v 0.260213 0.022618 -0.218666 0.752941 0.752941 0.752941
vn 0.447242 0.284194 5.987635
v 0.028364 0.128505 0.262743 0.752941 0.752941 0.752941
vn 5.512074 0.112977 2.512078
v 0.302149 -0.111287 0.013580 0.752941 0.752941 0.752941
vn 3.728311 -3.018415 2.927931
v 0.222678 -0.235377 0.077564 0.752941 0.752941 0.752941
vn -1.289532 5.757896 0.468187
v -0.073212 0.317471 0.143153 0.752941 0.752941 0.752941
vn -3.087536 -5.058746 1.039464
v -0.178160 -0.268232 0.082104 0.752941 0.752941 0.752941
vn 5.440394 -0.245811 -2.870109
v 0.297565 -0.018521 -0.162170 0.752941 0.752941 0.752941
vn 1.208395 5.401762 1.132486
v 0.008974 0.325281 0.126768 0.752941 0.752941 0.752941
vn 4.589910 -2.300506 0.903221
v 0.304203 -0.180589 -0.005407 0.752941 0.752941 0.752941
vn -2.414877 3.929028 -4.249579
v -0.148116 0.173895 -0.012455 0.752941 0.752941 0.752941
vn -3.068892 -3.441532 -4.133737
v -0.106030 -0.206379 -0.172114 0.752941 0.752941 0.752941
vn 5.417462 2.729428 1.507951
v 0.208971 0.161490 0.011864 0.752941 0.752941 0.752941
vn 2.611694 -3.419913 -4.521667
v 0.222122 -0.161966 -0.140120 0.752941 0.752941 0.752941
vn -2.288725 -1.160112 4.812939
v -0.179287 0.164714 0.246674 0.752941 0.752941 0.752941
vn -4.013056 3.741430 -0.632217
v -0.275949 0.203584 0.114668 0.752941 0.752941 0.752941
vn -3.336776 0.509605 5.292566
v -0.155297 -0.139556 0.182424 0.752941 0.752941 0.752941
vn -3.476379 2.169035 3.734537
v -0.226174 0.210885 0.212234 0.752941 0.752941 0.752941
vn 0.791774 -4.422420 -3.512197
v 0.028931 -0.252013 -0.191148 0.752941 0.752941 0.752941
vn 0.546648 -5.669548 -1.489074
v 0.020050 -0.319304 -0.051757 0.752941 0.752941 0.752941
vn -3.635793 -0.814666 5.022406
v -0.187538 0.019975 0.148643 0.752941 0.752941 0.752941
vn 1.234237 0.595118 -5.314366
v 0.212516 0.073818 -0.242266 0.752941 0.752941 0.752941
vn 2.274314 -5.143488 -2.718822
v 0.090003 -0.265362 -0.113360 0.752941 0.752941 0.752941
vn 3.674774 3.502988 0.089065
v 0.183964 0.247719 0.032436 0.752941 0.752941 0.752941
vn -2.717052 -0.340021 5.461547
v -0.098805 -0.184891 0.221738 0.752941 0.752941 0.752941
vn -1.136584 -2.872942 4.722642
v -0.059538 -0.231145 0.228333 0.752941 0.752941 0.752941
vn -3.826249 -2.487971 3.385164
v -0.198553 -0.219697 0.148268 0.752941 0.752941 0.752941
vn -3.240236 4.343860 -3.009121
v -0.049470 0.204765 -0.041486 0.752941 0.752941 0.752941
vn 3.762232 -3.412567 -2.999717
v 0.284028 -0.164204 -0.099251 0.752941 0.752941 0.752941
vn 4.234281 -0.652193 2.659325
v 0.199290 0.030305 0.230293 0.752941 0.752941 0.752941
vn 0.560757 3.091747 -4.939858
v 0.186857 0.173601 -0.204012 0.752941 0.752941 0.752941
vn 5.839655 0.971851 1.479978
v 0.217092 0.078277 0.084520 0.752941 0.752941 0.752941
vn 2.761348 -4.188261 -3.752768
v 0.114641 -0.229356 -0.143821 0.752941 0.752941 0.752941
vn 4.532158 -0.588884 4.119933
v 0.250328 -0.120638 0.085364 0.752941 0.752941 0.752941
vn 4.220551 2.186824 -3.282028
v 0.277279 0.143332 -0.172910 0.752941 0.752941 0.752941
vn 2.877115 -4.540818 -2.935946
v 0.220286 -0.227403 -0.077557 0.752941 0.752941 0.752941
vn 5.803418 -1.195913 1.516283
v 0.192901 0.009203 0.157996 0.752941 0.752941 0.752941
vn -3.521279 3.656090 -3.633118
v -0.100740 0.137447 -0.075360 0.752941 0.752941 0.752941
vn -1.086722 -0.550473 5.883187
v 0.020522 -0.138847 0.265980 0.752941 0.752941 0.752941
vn 0.411068 -2.477633 5.377797
v 0.020946 -0.189959 0.253434 0.752941 0.752941 0.752941
vn 5.099495 1.373230 -1.140931
v 0.299729 0.110032 -0.154621 0.752941 0.752941 0.752941
vn 0.792717 2.282093 5.469400
v -0.039511 0.232416 0.253743 0.752941 0.752941 0.752941
vn 5.140663 0.217537 3.529781
v 0.210933 -0.014916 0.124989 0.752941 0.752941 0.752941
vn 3.204946 3.310257 -1.958044
v 0.253296 0.192456 -0.163384 0.752941 0.752941 0.752941
vn -0.929128 3.371341 -2.393736
v -0.007457 0.221408 -0.125634 0.752941 0.752941 0.752941
vn -2.851396 0.518436 5.564696
v -0.099121 -0.098218 0.209783 0.752941 0.752941 0.752941
vn 2.453223 2.760533 4.913960
v 0.130713 0.155176 0.224888 0.752941 0.752941 0.752941
vn 5.333178 0.772553 3.000067
v 0.284659 -0.065351 0.036530 0.752941 0.752941 0.752941
vn 4.079707 1.320519 0.962259
v 0.225927 0.170706 0.146100 0.752941 0.752941 0.752941
vn 3.172259 3.978835 3.633588
v 0.091993 0.234505 0.182166 0.752941 0.752941 0.752941
vn -1.799929 0.695210 5.946715
v 0.029282 -0.043172 0.259977 0.752941 0.752941 0.752941
vn 6.021662 0.860358 -0.645531
v 0.200224 0.164498 0.066982 0.752941 0.752941 0.752941
vn -1.268380 -5.056935 -2.876288
v -0.035630 -0.284679 -0.131054 0.752941 0.752941 0.752941
vn -4.709126 3.661557 -1.866398
v -0.038827 0.180056 -0.112156 0.752941 0.752941 0.752941
vn 4.778438 -0.638110 -1.257610
v 0.329931 -0.090628 -0.101054 0.752941 0.752941 0.752941
vn 2.170954 3.725690 4.351451
v 0.007094 0.265377 0.216484 0.752941 0.752941 0.752941
vn -4.605690 -1.327823 2.903886
v -0.312861 0.099964 0.098216 0.752941 0.752941 0.752941
vn -2.662280 -0.509641 5.641619
v -0.065554 0.023152 0.223646 0.752941 0.752941 0.752941
vn -4.644839 2.073172 -0.496870
v -0.316223 0.141672 0.081095 0.752941 0.752941 0.752941
vn 4.378751 0.830086 2.079146
v 0.223360 0.121093 0.185131 0.752941 0.752941 0.752941
vn 6.032879 1.129781 0.702956
v 0.320910 -0.061053 -0.081054 0.752941 0.752941 0.752941
vn 5.040137 3.052113 1.527367
v 0.267639 0.161757 -0.112105 0.752941 0.752941 0.752941
vn 5.592359 1.486827 2.083058
v 0.293594 0.010796 -0.016045 0.752941 0.752941 0.752941
vn -2.756459 -5.044989 -1.996487
v -0.130722 -0.275330 -0.066913 0.752941 0.752941 0.752941
vn -1.966867 -5.708302 -0.675222
v -0.089326 -0.311469 0.006146 0.752941 0.752941 0.752941
vn -3.775785 1.356277 -4.774365
v -0.174260 -0.054816 -0.138698 0.752941 0.752941 0.752941
vn -4.079906 1.223549 -3.968818
v -0.292398 -0.015694 -0.062980 0.752941 0.752941 0.752941
vn -3.383242 -3.620357 -3.446886
v -0.173597 -0.217230 -0.114868 0.752941 0.752941 0.752941
vn -3.928035 -1.650861 -3.933448
v -0.220927 -0.150374 -0.119694 0.752941 0.752941 0.752941
vn -4.235884 -3.937617 -1.985348
v -0.205984 -0.219107 -0.063311 0.752941 0.752941 0.752941
# 152 vertices, 0 vertices normals

f 8//8 42//42 149//149
f 136//136 110//110 20//20
f 63//63 49//49 71//71
f 133//133 39//39 140//140
f 115//115 96//96 118//118
f 56//56 110//110 93//93
f 10//10 97//97 139//139
f 39//39 13//13 140//140
f 3//3 67//67 102//102
f 33//33 2//2 144//144
f 6//6 52//52 109//109
f 20//20 58//58 4//4
f 116//116 130//130 125//125
f 14//14 67//67 3//3
f 97//97 1//1 139//139
f 49//49 61//61 62//62
f 61//61 49//49 63//63
f 20//20 4//4 12//12
f 116//116 125//125 72//72
f 6//6 67//67 9//9
f 2//2 33//33 95//95
f 9//9 67//67 14//14
f 148//148 8//8 149//149
f 55//55 71//71 70//70
f 55//55 51//51 71//71
f 58//58 25//25 4//4
f 134//134 33//33 106//106
f 2//2 145//145 144//144
f 25//25 27//27 4//4
f 19//19 5//5 3//3
f 60//60 122//122 21//21
f 106//106 33//33 25//25
f 5//5 19//19 45//45
f 87//87 5//5 45//45
f 25//25 22//22 106//106
f 29//29 3//3 5//5
f 14//14 3//3 29//29
f 12//12 64//64 127//127
f 97//97 10//10 13//13
f 106//106 22//22 36//36
f 71//71 51//51 63//63
f 103//103 140//140 13//13
f 3//3 102//102 105//105
f 60//60 16//16 122//122
f 3//3 105//105 19//19
f 48//48 103//103 10//10
f 8//8 7//7 42//42
f 17//17 42//42 7//7
f 13//13 10//10 103//103
f 63//63 59//59 61//61
f 108//108 6//6 9//9
f 118//118 19//19 105//105
f 9//9 21//21 108//108
f 121//121 122//122 16//16
f 54//54 78//78 61//61
f 17//17 7//7 152//152
f 113//113 11//11 126//126
f 25//25 58//58 18//18
f 24//24 94//94 150//150
f 31//31 17//17 57//57
f 37//37 11//11 69//69
f 149//149 77//77 81//81
f 38//38 101//101 43//43
f 78//78 54//54 23//23
f 24//24 65//65 94//94
f 33//33 126//126 11//11
f 33//33 11//11 37//37
f 18//18 132//132 22//22
f 32//32 97//97 15//15
f 151//151 24//24 150//150
f 40//40 16//16 60//60
f 132//132 18//18 138//138
f 34//34 43//43 65//65
f 44//44 17//17 31//31
f 60//60 79//79 40//40
f 30//30 98//98 74//74
f 47//47 18//18 91//91
f 15//15 97//97 13//13
f 78//78 104//104 83//83
f 148//148 24//24 151//151
f 20//20 12//12 127//127
f 13//13 85//85 15//15
f 85//85 13//13 39//39
f 69//69 64//64 12//12
f 23//23 104//104 78//78
f 138//138 18//18 47//47
f 82//82 77//77 149//149
f 44//44 42//42 17//17
f 1//1 100//100 98//98
f 100//100 74//74 98//98
f 149//149 50//50 82//82
f 27//27 69//69 12//12
f 48//48 50//50 42//42
f 48//48 42//42 44//44
f 24//24 148//148 70//70
f 35//35 133//133 121//121
f 35//35 121//121 16//16
f 14//14 21//21 9//9
f 54//54 73//73 23//23
f 100//100 80//80 74//74
f 18//18 22//22 25//25
f 118//118 111//111 45//45
f 85//85 124//124 15//15
f 19//19 118//118 45//45
f 21//21 14//14 29//29
f 81//81 70//70 148//148
f 68//68 133//133 35//35
f 32//32 80//80 100//100
f 131//131 36//36 22//22
f 73//73 113//113 23//23
f 45//45 111//111 92//92
f 21//21 29//29 41//41
f 93//93 30//30 56//56
f 60//60 21//21 41//41
f 55//55 70//70 81//81
f 27//27 12//12 4//4
f 104//104 28//28 83//83
f 32//32 100//100 97//97
f 119//119 40//40 79//79
f 28//28 104//104 84//84
f 37//37 69//69 27//27
f 47//47 32//32 124//124
f 132//132 131//131 22//22
f 40//40 119//119 112//112
f 31//31 57//57 109//109
f 148//148 149//149 81//81
f 80//80 32//32 47//47
f 29//29 5//5 87//87
f 30//30 66//66 56//56
f 32//32 15//15 124//124
f 40//40 35//35 16//16
f 109//109 52//52 31//31
f 18//18 58//58 91//91
f 38//38 34//34 49//49
f 44//44 31//31 52//52
f 134//134 95//95 33//33
f 46//46 75//75 26//26
f 87//87 41//41 29//29
f 55//55 81//81 120//120
f 68//68 35//35 40//40
f 104//104 23//23 126//126
f 25//25 33//33 37//37
f 23//23 113//113 126//126
f 37//37 27//27 25//25
f 43//43 34//34 38//38
f 112//112 68//68 40//40
f 38//38 49//49 46//46
f 39//39 133//133 68//68
f 75//75 96//96 26//26
f 149//149 42//42 50//50
f 46//46 26//26 38//38
f 76//76 44//44 52//52
f 65//65 43//43 94//94
f 65//65 24//24 70//70
f 46//46 49//49 62//62
f 20//20 110//110 56//56
f 76//76 103//103 44//44
f 33//33 144//144 126//126
f 136//136 51//51 55//55
f 87//87 45//45 92//92
f 85//85 39//39 68//68
f 71//71 49//49 65//65
f 65//65 49//49 34//34
f 61//61 59//59 54//54
f 51//51 53//53 63//63
f 47//47 124//124 138//138
f 63//63 53//53 59//59
f 139//139 50//50 48//48
f 127//127 53//53 51//51
f 66//66 58//58 56//56
f 41//41 87//87 116//116
f 54//54 59//59 73//73
f 99//99 76//76 52//52
f 53//53 127//127 59//59
f 41//41 116//116 72//72
f 58//58 20//20 56//56
f 52//52 107//107 99//99
f 89//89 109//109 57//57
f 55//55 120//120 136//136
f 69//69 73//73 59//59
f 60//60 72//72 79//79
f 67//67 147//147 102//102
f 30//30 74//74 66//66
f 142//142 68//68 112//112
f 41//41 72//72 60//60
f 44//44 103//103 48//48
f 61//61 78//78 62//62
f 67//67 89//89 147//147
f 136//136 127//127 51//51
f 129//129 131//131 132//132
f 78//78 46//46 62//62
f 83//83 46//46 78//78
f 59//59 64//64 69//69
f 128//128 76//76 99//99
f 127//127 64//64 59//59
f 88//88 66//66 74//74
f 83//83 75//75 46//46
f 142//142 131//131 129//129
f 70//70 71//71 65//65
f 141//141 82//82 50//50
f 80//80 88//88 74//74
f 72//72 125//125 79//79
f 96//96 75//75 28//28
f 79//79 125//125 119//119
f 139//139 141//141 50//50
f 103//103 76//76 140//140
f 76//76 128//128 140//140
f 73//73 11//11 113//113
f 147//147 89//89 57//57
f 77//77 93//93 81//81
f 11//11 73//73 69//69
f 93//93 77//77 82//82
f 47//47 88//88 80//80
f 6//6 107//107 52//52
f 111//111 96//96 28//28
f 93//93 120//120 81//81
f 114//114 2//2 95//95
f 124//124 85//85 129//129
f 137//137 111//111 28//28
f 108//108 107//107 6//6
f 114//114 145//145 2//2
f 75//75 83//83 28//28
f 150//150 135//135 146//146
f 58//58 66//66 88//88
f 98//98 30//30 82//82
f 84//84 123//123 90//90
f 137//137 28//28 90//90
f 84//84 90//90 28//28
f 6//6 89//89 67//67
f 91//91 58//58 88//88
f 86//86 116//116 92//92
f 47//47 91//91 88//88
f 94//94 135//135 150//150
f 92//92 116//116 87//87
f 98//98 82//82 141//141
f 101//101 38//38 115//115
f 90//90 143//143 137//137
f 26//26 115//115 38//38
f 94//94 43//43 135//135
f 68//68 129//129 85//85
f 30//30 93//93 82//82
f 105//105 101//101 115//115
f 143//143 90//90 123//123
f 21//21 122//122 108//108
f 68//68 142//142 129//129
f 102//102 135//135 101//101
f 1//1 97//97 100//100
f 114//114 95//95 134//134
f 118//118 96//96 111//111
f 43//43 101//101 135//135
f 93//93 110//110 120//120
f 126//126 117//117 104//104
f 99//99 107//107 128//128
f 6//6 109//109 89//89
f 101//101 105//105 102//102
f 84//84 104//104 117//117
f 123//123 84//84 117//117
f 116//116 86//86 130//130
f 107//107 108//108 121//121
f 125//125 114//114 119//119
f 92//92 111//111 137//137
f 128//128 107//107 121//121
f 114//114 142//142 119//119
f 86//86 92//92 137//137
f 114//114 134//134 142//142
f 115//115 26//26 96//96
f 105//105 115//115 118//118
f 117//117 126//126 123//123
f 110//110 136//136 120//120
f 139//139 48//48 10//10
f 121//121 108//108 122//122
f 144//144 123//123 126//126
f 112//112 119//119 142//142
f 128//128 121//121 133//133
f 138//138 124//124 129//129
f 134//134 131//131 142//142
f 114//114 130//130 145//145
f 130//130 114//114 125//125
f 140//140 128//128 133//133
f 20//20 127//127 136//136
f 129//129 132//132 138//138
f 36//36 131//131 134//134
f 134//134 106//106 36//36
f 123//123 145//145 143//143
f 145//145 130//130 143//143
f 1//1 141//141 139//139
f 137//137 143//143 86//86
f 141//141 1//1 98//98
f 143//143 130//130 86//86
f 147//147 135//135 102//102
f 152//152 150//150 146//146
f 144//144 145//145 123//123
f 147//147 57//57 146//146
f 57//57 152//152 146//146
f 147//147 146//146 135//135
f 8//8 148//148 151//151
f 151//151 152//152 7//7
f 152//152 151//151 150//150
f 7//7 8//8 151//151
f 57//57 17//17 152//152
# 300 faces, 0 coords texture

# End of File
