####
#
# OBJ File Generated by Meshlab
#
####
# Object fimo_rice_08.obj
#
# Vertices: 38
# Faces: 72
#
####
vn -3.814430 2.301053 -0.319474
v -30.707006 -5.027035 -1.616760 0.749020 0.749020 0.749020
vn 0.061169 -0.879129 5.516391
v 22.241987 14.625515 18.979218 0.749020 0.749020 0.749020
vn 3.780857 -3.721844 1.755308
v 30.758097 11.328779 12.573700 0.749020 0.749020 0.749020
vn -1.880259 -2.021902 4.786905
v -29.984325 -15.182922 2.981110 0.749020 0.749020 0.749020
vn 3.408442 2.253357 -3.643941
v 31.518122 21.059473 6.023132 0.749020 0.749020 0.749020
vn -1.782814 2.180445 -4.299352
v -17.572393 -1.644112 -15.550049 0.749020 0.749020 0.749020
vn -1.533970 4.882314 -2.923694
v -7.121993 11.371994 -4.800903 0.749020 0.749020 0.749020
vn 3.767736 -2.186362 -4.300698
v 2.617054 -6.803185 -9.057678 0.749020 0.749020 0.749020
vn 2.551158 -5.116304 1.640648
v 2.310961 -11.428707 0.125702 0.749020 0.749020 0.749020
vn 2.243004 -4.685730 2.983103
v 9.232859 -4.501854 7.727753 0.749020 0.749020 0.749020
vn 3.794074 -4.025215 -1.497712
v 7.750000 -7.837337 -2.666534 0.749020 0.749020 0.749020
vn -2.363994 5.201591 0.335241
v 2.186279 17.714518 5.177490 0.749020 0.749020 0.749020
vn -1.917888 -0.135142 5.472883
v -10.101057 0.160931 10.966248 0.749020 0.749020 0.749020
vn 0.300743 -3.035523 5.182721
v 5.683924 -0.484589 12.606781 0.749020 0.749020 0.749020
vn -3.199517 3.900360 3.231833
v -7.079237 10.405983 7.888519 0.749020 0.749020 0.749020
vn -2.809369 2.048155 5.000957
v -8.420179 4.908325 10.591248 0.749020 0.749020 0.749020
vn -2.159981 1.932580 5.211230
v 14.684166 16.795694 16.730652 0.749020 0.749020 0.749020
vn 0.123386 3.169206 2.011947
v 28.466150 26.804306 17.428619 0.749020 0.749020 0.749020
vn 1.331457 -4.630110 3.875402
v -11.972466 -15.911728 -0.514221 0.749020 0.749020 0.749020
vn 0.858912 -4.354481 4.120009
v -5.898495 -10.144466 6.257416 0.749020 0.749020 0.749020
vn 4.138205 -4.491141 -0.833609
v 23.940390 5.669765 5.598297 0.749020 0.749020 0.749020
vn 1.915420 0.691333 1.489487
v 35.163086 22.796860 18.608917 0.749020 0.749020 0.749020
vn 2.064552 -3.812111 3.984892
v 23.336885 7.895988 14.956879 0.749020 0.749020 0.749020
vn 1.053512 3.907836 -2.064073
v 28.163183 26.079079 7.540161 0.749020 0.749020 0.749020
vn 1.277042 -4.664598 3.503570
v -20.848961 -21.856010 -3.566864 0.749020 0.749020 0.749020
vn 3.213696 -0.050628 -5.040219
v 30.290186 16.502565 4.394531 0.749020 0.749020 0.749020
vn -2.090533 -2.561364 0.836344
v -30.597498 -23.259426 -3.198364 0.749020 0.749020 0.749020
vn -2.729954 0.417149 0.460310
v -35.163086 -11.339413 0.481659 0.749020 0.749020 0.749020
vn 0.012915 4.051870 -4.293607
v 10.230518 17.169325 -1.241852 0.749020 0.749020 0.749020
vn -3.292550 3.399193 -1.032818
v -23.981770 3.518684 -5.595886 0.749020 0.749020 0.749020
vn -1.548563 0.830732 -4.788013
v -16.784876 -10.282894 -18.692627 0.749020 0.749020 0.749020
vn 2.148677 -4.324461 -1.832763
v -15.767603 -22.881111 -13.306702 0.749020 0.749020 0.749020
vn 4.181321 -0.919384 -1.465511
v 34.604767 15.993624 8.062378 0.749020 0.749020 0.749020
vn -0.850652 -1.926468 -1.032153
v -25.073877 -26.804306 -12.267578 0.749020 0.749020 0.749020
vn -4.536152 0.950099 -3.954657
v -23.726112 -12.663624 -8.771454 0.749020 0.749020 0.749020
vn 2.372931 0.812588 -5.487969
v 4.907415 0.495564 -8.689636 0.749020 0.749020 0.749020
vn 1.343952 -1.180666 -4.411236
v -12.646860 -14.450794 -18.979218 0.749020 0.749020 0.749020
vn 1.980647 1.132079 -5.450923
v 8.032766 7.088112 -6.941620 0.749020 0.749020 0.749020
# 38 vertices, 0 vertices normals

f 38//38 26//26 31//31
f 25//25 34//34 9//9
f 12//12 7//7 30//30
f 34//34 32//32 9//9
f 37//37 8//8 32//32
f 14//14 4//4 20//20
f 13//13 4//4 14//14
f 29//29 24//24 38//38
f 9//9 21//21 3//3
f 29//29 7//7 24//24
f 3//3 10//10 9//9
f 23//23 14//14 10//10
f 38//38 6//6 29//29
f 7//7 12//12 24//24
f 34//34 27//27 28//28
f 35//35 1//1 6//6
f 5//5 38//38 24//24
f 15//15 1//1 16//16
f 6//6 38//38 31//31
f 24//24 22//22 5//5
f 2//2 23//23 22//22
f 18//18 24//24 12//12
f 8//8 33//33 11//11
f 32//32 8//8 11//11
f 23//23 10//10 3//3
f 20//20 10//10 14//14
f 26//26 38//38 5//5
f 3//3 22//22 23//23
f 2//2 14//14 23//23
f 31//31 34//34 6//6
f 36//36 8//8 37//37
f 20//20 4//4 27//27
f 28//28 13//13 1//1
f 32//32 34//34 37//37
f 6//6 30//30 7//7
f 9//9 19//19 25//25
f 37//37 31//31 36//36
f 9//9 10//10 19//19
f 1//1 13//13 16//16
f 7//7 29//29 6//6
f 11//11 9//9 32//32
f 17//17 2//2 18//18
f 16//16 17//17 15//15
f 33//33 21//21 11//11
f 30//30 1//1 15//15
f 33//33 8//8 26//26
f 8//8 36//36 26//26
f 33//33 22//22 3//3
f 25//25 27//27 34//34
f 1//1 30//30 6//6
f 4//4 13//13 28//28
f 14//14 2//2 13//13
f 18//18 15//15 17//17
f 10//10 20//20 19//19
f 17//17 16//16 2//2
f 22//22 33//33 5//5
f 15//15 12//12 30//30
f 22//22 24//24 18//18
f 18//18 2//2 22//22
f 9//9 11//11 21//21
f 36//36 31//31 26//26
f 35//35 28//28 1//1
f 18//18 12//12 15//15
f 16//16 13//13 2//2
f 20//20 27//27 19//19
f 21//21 33//33 3//3
f 33//33 26//26 5//5
f 19//19 27//27 25//25
f 34//34 28//28 35//35
f 28//28 27//27 4//4
f 31//31 37//37 34//34
f 34//34 35//35 6//6
# 72 faces, 0 coords texture

# End of File
